<mxfile host="app.diagrams.net" modified="2024-03-21T14:19:57.886Z" agent="Mozilla/5.0 (Windows NT 10.0; Win64; x64) AppleWebKit/537.36 (KHTML, like Gecko) Chrome/122.0.0.0 Safari/537.36" etag="jvkAa2RgBvWDpewnu_2W" version="24.0.7" type="device">
  <diagram id="R2lEEEUBdFMjLlhIrx00" name="Page-1">
    <mxGraphModel dx="6586" dy="4084" grid="1" gridSize="10" guides="1" tooltips="1" connect="1" arrows="1" fold="1" page="1" pageScale="1" pageWidth="850" pageHeight="1100" math="0" shadow="0" extFonts="Permanent Marker^https://fonts.googleapis.com/css?family=Permanent+Marker">
      <root>
        <mxCell id="0" />
        <mxCell id="1" parent="0" />
        <mxCell id="qmZj_wIQ6ApBK8pKtUDV-6" value="asset" style="whiteSpace=wrap;html=1;align=center;" parent="1" vertex="1">
          <mxGeometry x="42.5" y="-130" width="100" height="40" as="geometry" />
        </mxCell>
        <mxCell id="qmZj_wIQ6ApBK8pKtUDV-7" value="title" style="ellipse;whiteSpace=wrap;html=1;align=center;" parent="1" vertex="1">
          <mxGeometry x="-43" y="-290" width="100" height="40" as="geometry" />
        </mxCell>
        <mxCell id="qmZj_wIQ6ApBK8pKtUDV-8" value="id" style="ellipse;whiteSpace=wrap;html=1;align=center;fontStyle=4;" parent="1" vertex="1">
          <mxGeometry x="-163" y="-290" width="100" height="40" as="geometry" />
        </mxCell>
        <mxCell id="qmZj_wIQ6ApBK8pKtUDV-26" value="type" style="ellipse;whiteSpace=wrap;html=1;align=center;" parent="1" vertex="1">
          <mxGeometry x="160" y="-290" width="100" height="40" as="geometry" />
        </mxCell>
        <mxCell id="qmZj_wIQ6ApBK8pKtUDV-27" value="associations" style="ellipse;shape=doubleEllipse;margin=3;whiteSpace=wrap;html=1;align=center;" parent="1" vertex="1">
          <mxGeometry x="-300" y="-290" width="100" height="40" as="geometry" />
        </mxCell>
        <mxCell id="qmZj_wIQ6ApBK8pKtUDV-28" value="last_updated" style="ellipse;whiteSpace=wrap;html=1;align=center;" parent="1" vertex="1">
          <mxGeometry x="160" y="-30" width="100" height="40" as="geometry" />
        </mxCell>
        <mxCell id="qmZj_wIQ6ApBK8pKtUDV-29" value="additional_attrs" style="ellipse;shape=doubleEllipse;margin=3;whiteSpace=wrap;html=1;align=center;" parent="1" vertex="1">
          <mxGeometry x="42.5" y="-30" width="100" height="40" as="geometry" />
        </mxCell>
        <mxCell id="qmZj_wIQ6ApBK8pKtUDV-33" value="" style="endArrow=none;html=1;rounded=0;entryX=0.75;entryY=1;entryDx=0;entryDy=0;exitX=0.5;exitY=0;exitDx=0;exitDy=0;" parent="1" source="qmZj_wIQ6ApBK8pKtUDV-28" target="qmZj_wIQ6ApBK8pKtUDV-6" edge="1">
          <mxGeometry width="50" height="50" relative="1" as="geometry">
            <mxPoint x="182.5" y="-50" as="sourcePoint" />
            <mxPoint x="232.5" y="-100" as="targetPoint" />
          </mxGeometry>
        </mxCell>
        <mxCell id="qmZj_wIQ6ApBK8pKtUDV-34" value="" style="endArrow=none;html=1;rounded=0;entryX=0.5;entryY=1;entryDx=0;entryDy=0;exitX=0.5;exitY=0;exitDx=0;exitDy=0;" parent="1" source="qmZj_wIQ6ApBK8pKtUDV-29" target="qmZj_wIQ6ApBK8pKtUDV-6" edge="1">
          <mxGeometry width="50" height="50" relative="1" as="geometry">
            <mxPoint x="42.5" y="-30" as="sourcePoint" />
            <mxPoint x="92.5" y="-80" as="targetPoint" />
          </mxGeometry>
        </mxCell>
        <mxCell id="qmZj_wIQ6ApBK8pKtUDV-35" value="" style="endArrow=none;html=1;rounded=0;entryX=0.5;entryY=1;entryDx=0;entryDy=0;exitX=0.25;exitY=0;exitDx=0;exitDy=0;" parent="1" source="qmZj_wIQ6ApBK8pKtUDV-6" target="qmZj_wIQ6ApBK8pKtUDV-8" edge="1">
          <mxGeometry width="50" height="50" relative="1" as="geometry">
            <mxPoint x="-147.5" y="-70" as="sourcePoint" />
            <mxPoint x="-97.5" y="-120" as="targetPoint" />
          </mxGeometry>
        </mxCell>
        <mxCell id="qmZj_wIQ6ApBK8pKtUDV-36" value="" style="endArrow=none;html=1;rounded=0;entryX=0.5;entryY=1;entryDx=0;entryDy=0;exitX=0.36;exitY=0.001;exitDx=0;exitDy=0;exitPerimeter=0;" parent="1" source="qmZj_wIQ6ApBK8pKtUDV-6" target="qmZj_wIQ6ApBK8pKtUDV-7" edge="1">
          <mxGeometry width="50" height="50" relative="1" as="geometry">
            <mxPoint x="112.5" y="-120" as="sourcePoint" />
            <mxPoint x="162.5" y="-170" as="targetPoint" />
          </mxGeometry>
        </mxCell>
        <mxCell id="qmZj_wIQ6ApBK8pKtUDV-37" value="" style="endArrow=none;html=1;rounded=0;entryX=0.5;entryY=1;entryDx=0;entryDy=0;exitX=0.75;exitY=0;exitDx=0;exitDy=0;" parent="1" source="qmZj_wIQ6ApBK8pKtUDV-6" target="qmZj_wIQ6ApBK8pKtUDV-26" edge="1">
          <mxGeometry width="50" height="50" relative="1" as="geometry">
            <mxPoint x="222.5" y="-120" as="sourcePoint" />
            <mxPoint x="272.5" y="-170" as="targetPoint" />
          </mxGeometry>
        </mxCell>
        <mxCell id="qmZj_wIQ6ApBK8pKtUDV-68" style="edgeStyle=orthogonalEdgeStyle;rounded=0;orthogonalLoop=1;jettySize=auto;html=1;exitX=1;exitY=0.5;exitDx=0;exitDy=0;entryX=0;entryY=0.5;entryDx=0;entryDy=0;" parent="1" source="qmZj_wIQ6ApBK8pKtUDV-38" target="qmZj_wIQ6ApBK8pKtUDV-52" edge="1">
          <mxGeometry relative="1" as="geometry" />
        </mxCell>
        <mxCell id="qmZj_wIQ6ApBK8pKtUDV-38" value="has_a" style="rhombus;whiteSpace=wrap;html=1;" parent="1" vertex="1">
          <mxGeometry x="235" y="-140" width="120" height="60" as="geometry" />
        </mxCell>
        <mxCell id="qmZj_wIQ6ApBK8pKtUDV-52" value="type" style="whiteSpace=wrap;html=1;align=center;" parent="1" vertex="1">
          <mxGeometry x="442.5" y="-130" width="100" height="40" as="geometry" />
        </mxCell>
        <mxCell id="qmZj_wIQ6ApBK8pKtUDV-53" value="type_name" style="ellipse;whiteSpace=wrap;html=1;align=center;" parent="1" vertex="1">
          <mxGeometry x="520" y="-290" width="100" height="40" as="geometry" />
        </mxCell>
        <mxCell id="qmZj_wIQ6ApBK8pKtUDV-54" value="id" style="ellipse;whiteSpace=wrap;html=1;align=center;fontStyle=4;" parent="1" vertex="1">
          <mxGeometry x="325" y="-290" width="100" height="40" as="geometry" />
        </mxCell>
        <mxCell id="qmZj_wIQ6ApBK8pKtUDV-56" value="attr_keys" style="ellipse;shape=doubleEllipse;margin=3;whiteSpace=wrap;html=1;align=center;" parent="1" vertex="1">
          <mxGeometry x="442.5" y="-30" width="100" height="40" as="geometry" />
        </mxCell>
        <mxCell id="qmZj_wIQ6ApBK8pKtUDV-58" value="&lt;font style=&quot;font-size: 9px;&quot;&gt;attr_backend_types&lt;/font&gt;" style="ellipse;shape=doubleEllipse;margin=3;whiteSpace=wrap;html=1;align=center;" parent="1" vertex="1">
          <mxGeometry x="560" y="-30" width="100" height="40" as="geometry" />
        </mxCell>
        <mxCell id="qmZj_wIQ6ApBK8pKtUDV-62" value="" style="endArrow=none;html=1;rounded=0;entryX=0.5;entryY=1;entryDx=0;entryDy=0;exitX=0.25;exitY=0;exitDx=0;exitDy=0;" parent="1" source="qmZj_wIQ6ApBK8pKtUDV-52" target="qmZj_wIQ6ApBK8pKtUDV-54" edge="1">
          <mxGeometry width="50" height="50" relative="1" as="geometry">
            <mxPoint x="252.5" y="-70" as="sourcePoint" />
            <mxPoint x="302.5" y="-120" as="targetPoint" />
          </mxGeometry>
        </mxCell>
        <mxCell id="qmZj_wIQ6ApBK8pKtUDV-63" value="" style="endArrow=none;html=1;rounded=0;entryX=0.5;entryY=1;entryDx=0;entryDy=0;exitX=0.667;exitY=0.001;exitDx=0;exitDy=0;exitPerimeter=0;" parent="1" source="qmZj_wIQ6ApBK8pKtUDV-52" target="qmZj_wIQ6ApBK8pKtUDV-53" edge="1">
          <mxGeometry width="50" height="50" relative="1" as="geometry">
            <mxPoint x="512.5" y="-120" as="sourcePoint" />
            <mxPoint x="562.5" y="-170" as="targetPoint" />
          </mxGeometry>
        </mxCell>
        <mxCell id="qmZj_wIQ6ApBK8pKtUDV-64" value="" style="endArrow=none;html=1;rounded=0;entryX=0.5;entryY=1;entryDx=0;entryDy=0;exitX=0.75;exitY=0;exitDx=0;exitDy=0;" parent="1" source="qmZj_wIQ6ApBK8pKtUDV-52" target="qmZj_wIQ6ApBK8pKtUDV-65" edge="1">
          <mxGeometry width="50" height="50" relative="1" as="geometry">
            <mxPoint x="622.5" y="-120" as="sourcePoint" />
            <mxPoint x="610" y="-190" as="targetPoint" />
          </mxGeometry>
        </mxCell>
        <mxCell id="qmZj_wIQ6ApBK8pKtUDV-65" value="attributes" style="ellipse;shape=doubleEllipse;margin=3;whiteSpace=wrap;html=1;align=center;" parent="1" vertex="1">
          <mxGeometry x="678" y="-290" width="100" height="40" as="geometry" />
        </mxCell>
        <mxCell id="qmZj_wIQ6ApBK8pKtUDV-66" value="last_updated" style="ellipse;whiteSpace=wrap;html=1;align=center;" parent="1" vertex="1">
          <mxGeometry x="678" y="-130" width="100" height="40" as="geometry" />
        </mxCell>
        <mxCell id="qmZj_wIQ6ApBK8pKtUDV-67" value="" style="shape=link;html=1;rounded=0;exitX=1;exitY=0.5;exitDx=0;exitDy=0;entryX=0;entryY=0.5;entryDx=0;entryDy=0;" parent="1" source="qmZj_wIQ6ApBK8pKtUDV-6" target="qmZj_wIQ6ApBK8pKtUDV-38" edge="1">
          <mxGeometry width="100" relative="1" as="geometry">
            <mxPoint x="260" y="-170" as="sourcePoint" />
            <mxPoint x="150" y="60" as="targetPoint" />
          </mxGeometry>
        </mxCell>
        <mxCell id="0Or5zX7NZ8yI2jhLymI_-187" style="edgeStyle=orthogonalEdgeStyle;rounded=0;orthogonalLoop=1;jettySize=auto;html=1;exitX=1;exitY=0.5;exitDx=0;exitDy=0;entryX=0.5;entryY=1;entryDx=0;entryDy=0;endArrow=none;endFill=0;" edge="1" parent="1" source="qmZj_wIQ6ApBK8pKtUDV-69" target="0Or5zX7NZ8yI2jhLymI_-179">
          <mxGeometry relative="1" as="geometry" />
        </mxCell>
        <mxCell id="qmZj_wIQ6ApBK8pKtUDV-69" value="user" style="whiteSpace=wrap;html=1;align=center;" parent="1" vertex="1">
          <mxGeometry x="-155" y="540" width="100" height="40" as="geometry" />
        </mxCell>
        <mxCell id="qmZj_wIQ6ApBK8pKtUDV-70" value="&lt;span style=&quot;text-decoration-line: underline;&quot;&gt;user_id&lt;/span&gt;" style="ellipse;whiteSpace=wrap;html=1;align=center;" parent="1" vertex="1">
          <mxGeometry x="-230" y="450" width="100" height="40" as="geometry" />
        </mxCell>
        <mxCell id="qmZj_wIQ6ApBK8pKtUDV-72" value="role" style="ellipse;whiteSpace=wrap;html=1;align=center;" parent="1" vertex="1">
          <mxGeometry x="-80" y="630" width="100" height="40" as="geometry" />
        </mxCell>
        <mxCell id="qmZj_wIQ6ApBK8pKtUDV-73" value="password" style="ellipse;whiteSpace=wrap;html=1;align=center;" parent="1" vertex="1">
          <mxGeometry x="-230" y="630" width="100" height="40" as="geometry" />
        </mxCell>
        <mxCell id="qmZj_wIQ6ApBK8pKtUDV-74" value="" style="endArrow=none;html=1;rounded=0;entryX=0.5;entryY=1;entryDx=0;entryDy=0;exitX=0.25;exitY=0;exitDx=0;exitDy=0;" parent="1" source="qmZj_wIQ6ApBK8pKtUDV-69" target="qmZj_wIQ6ApBK8pKtUDV-70" edge="1">
          <mxGeometry width="50" height="50" relative="1" as="geometry">
            <mxPoint x="-270" y="590" as="sourcePoint" />
            <mxPoint x="-220" y="540" as="targetPoint" />
          </mxGeometry>
        </mxCell>
        <mxCell id="qmZj_wIQ6ApBK8pKtUDV-75" value="" style="endArrow=none;html=1;rounded=0;exitX=0.75;exitY=0;exitDx=0;exitDy=0;entryX=0.5;entryY=1;entryDx=0;entryDy=0;" parent="1" source="qmZj_wIQ6ApBK8pKtUDV-69" target="qmZj_wIQ6ApBK8pKtUDV-76" edge="1">
          <mxGeometry width="50" height="50" relative="1" as="geometry">
            <mxPoint x="40" y="550" as="sourcePoint" />
            <mxPoint x="-30" y="490" as="targetPoint" />
          </mxGeometry>
        </mxCell>
        <mxCell id="qmZj_wIQ6ApBK8pKtUDV-76" value="username" style="ellipse;whiteSpace=wrap;html=1;align=center;" parent="1" vertex="1">
          <mxGeometry x="-80" y="450" width="100" height="40" as="geometry" />
        </mxCell>
        <mxCell id="qmZj_wIQ6ApBK8pKtUDV-77" value="" style="endArrow=none;html=1;rounded=0;entryX=0.25;entryY=1;entryDx=0;entryDy=0;exitX=0.5;exitY=0;exitDx=0;exitDy=0;" parent="1" source="qmZj_wIQ6ApBK8pKtUDV-73" target="qmZj_wIQ6ApBK8pKtUDV-69" edge="1">
          <mxGeometry width="50" height="50" relative="1" as="geometry">
            <mxPoint x="20" y="590" as="sourcePoint" />
            <mxPoint x="70" y="540" as="targetPoint" />
          </mxGeometry>
        </mxCell>
        <mxCell id="qmZj_wIQ6ApBK8pKtUDV-78" value="" style="endArrow=none;html=1;rounded=0;entryX=0.75;entryY=1;entryDx=0;entryDy=0;exitX=0.5;exitY=0;exitDx=0;exitDy=0;" parent="1" source="qmZj_wIQ6ApBK8pKtUDV-72" target="qmZj_wIQ6ApBK8pKtUDV-69" edge="1">
          <mxGeometry width="50" height="50" relative="1" as="geometry">
            <mxPoint x="30" y="610" as="sourcePoint" />
            <mxPoint x="80" y="560" as="targetPoint" />
          </mxGeometry>
        </mxCell>
        <mxCell id="0Or5zX7NZ8yI2jhLymI_-140" style="edgeStyle=orthogonalEdgeStyle;rounded=0;orthogonalLoop=1;jettySize=auto;html=1;exitX=0;exitY=0.5;exitDx=0;exitDy=0;entryX=1;entryY=0.5;entryDx=0;entryDy=0;endArrow=none;endFill=0;" edge="1" parent="1" source="qmZj_wIQ6ApBK8pKtUDV-88" target="qmZj_wIQ6ApBK8pKtUDV-102">
          <mxGeometry relative="1" as="geometry" />
        </mxCell>
        <mxCell id="0Or5zX7NZ8yI2jhLymI_-141" style="edgeStyle=orthogonalEdgeStyle;rounded=0;orthogonalLoop=1;jettySize=auto;html=1;exitX=1;exitY=0.5;exitDx=0;exitDy=0;endArrow=none;endFill=0;" edge="1" parent="1" source="qmZj_wIQ6ApBK8pKtUDV-88" target="qmZj_wIQ6ApBK8pKtUDV-99">
          <mxGeometry relative="1" as="geometry" />
        </mxCell>
        <mxCell id="0Or5zX7NZ8yI2jhLymI_-150" style="edgeStyle=orthogonalEdgeStyle;rounded=0;orthogonalLoop=1;jettySize=auto;html=1;exitX=0.5;exitY=1;exitDx=0;exitDy=0;endArrow=none;endFill=0;" edge="1" parent="1" source="qmZj_wIQ6ApBK8pKtUDV-88" target="0Or5zX7NZ8yI2jhLymI_-149">
          <mxGeometry relative="1" as="geometry" />
        </mxCell>
        <mxCell id="qmZj_wIQ6ApBK8pKtUDV-88" value="audit log entry" style="whiteSpace=wrap;html=1;align=center;" parent="1" vertex="1">
          <mxGeometry x="235" y="-490" width="100" height="40" as="geometry" />
        </mxCell>
        <mxCell id="qmZj_wIQ6ApBK8pKtUDV-89" value="title" style="ellipse;whiteSpace=wrap;html=1;align=center;" parent="1" vertex="1">
          <mxGeometry x="235" y="-590" width="100" height="40" as="geometry" />
        </mxCell>
        <mxCell id="qmZj_wIQ6ApBK8pKtUDV-90" value="id" style="ellipse;whiteSpace=wrap;html=1;align=center;fontStyle=4;" parent="1" vertex="1">
          <mxGeometry x="117.5" y="-560" width="100" height="40" as="geometry" />
        </mxCell>
        <mxCell id="qmZj_wIQ6ApBK8pKtUDV-96" value="" style="endArrow=none;html=1;rounded=0;entryX=0.5;entryY=1;entryDx=0;entryDy=0;exitX=0;exitY=0;exitDx=0;exitDy=0;" parent="1" source="qmZj_wIQ6ApBK8pKtUDV-88" target="qmZj_wIQ6ApBK8pKtUDV-90" edge="1">
          <mxGeometry width="50" height="50" relative="1" as="geometry">
            <mxPoint x="45" y="-430" as="sourcePoint" />
            <mxPoint x="95" y="-480" as="targetPoint" />
          </mxGeometry>
        </mxCell>
        <mxCell id="qmZj_wIQ6ApBK8pKtUDV-97" value="" style="endArrow=none;html=1;rounded=0;entryX=0.5;entryY=1;entryDx=0;entryDy=0;exitX=1;exitY=0;exitDx=0;exitDy=0;" parent="1" source="qmZj_wIQ6ApBK8pKtUDV-88" target="qmZj_wIQ6ApBK8pKtUDV-100" edge="1">
          <mxGeometry width="50" height="50" relative="1" as="geometry">
            <mxPoint x="415" y="-480" as="sourcePoint" />
            <mxPoint x="402.5" y="-550" as="targetPoint" />
          </mxGeometry>
        </mxCell>
        <mxCell id="qmZj_wIQ6ApBK8pKtUDV-99" value="last_updated" style="ellipse;whiteSpace=wrap;html=1;align=center;" parent="1" vertex="1">
          <mxGeometry x="400" y="-490" width="100" height="40" as="geometry" />
        </mxCell>
        <mxCell id="qmZj_wIQ6ApBK8pKtUDV-100" value="action" style="ellipse;whiteSpace=wrap;html=1;align=center;" parent="1" vertex="1">
          <mxGeometry x="352.5" y="-560" width="100" height="40" as="geometry" />
        </mxCell>
        <mxCell id="qmZj_wIQ6ApBK8pKtUDV-101" value="" style="endArrow=none;html=1;rounded=0;entryX=0.5;entryY=1;entryDx=0;entryDy=0;exitX=0.5;exitY=0;exitDx=0;exitDy=0;" parent="1" source="qmZj_wIQ6ApBK8pKtUDV-88" target="qmZj_wIQ6ApBK8pKtUDV-89" edge="1">
          <mxGeometry width="50" height="50" relative="1" as="geometry">
            <mxPoint x="270.5" y="-480" as="sourcePoint" />
            <mxPoint x="177.5" y="-540" as="targetPoint" />
          </mxGeometry>
        </mxCell>
        <mxCell id="qmZj_wIQ6ApBK8pKtUDV-102" value="username" style="ellipse;whiteSpace=wrap;html=1;align=center;" parent="1" vertex="1">
          <mxGeometry x="70" y="-490" width="100" height="40" as="geometry" />
        </mxCell>
        <mxCell id="0Or5zX7NZ8yI2jhLymI_-1" value="ISA" style="triangle;whiteSpace=wrap;html=1;rotation=-90;textDirection=vertical-lr;" vertex="1" parent="1">
          <mxGeometry x="-135" y="340" width="60" height="80" as="geometry" />
        </mxCell>
        <mxCell id="0Or5zX7NZ8yI2jhLymI_-61" style="edgeStyle=orthogonalEdgeStyle;rounded=0;orthogonalLoop=1;jettySize=auto;html=1;exitX=1;exitY=0.5;exitDx=0;exitDy=0;entryX=0.5;entryY=1;entryDx=0;entryDy=0;endArrow=classic;endFill=1;" edge="1" parent="1" source="0Or5zX7NZ8yI2jhLymI_-3" target="0Or5zX7NZ8yI2jhLymI_-34">
          <mxGeometry relative="1" as="geometry" />
        </mxCell>
        <mxCell id="0Or5zX7NZ8yI2jhLymI_-186" style="edgeStyle=orthogonalEdgeStyle;rounded=0;orthogonalLoop=1;jettySize=auto;html=1;exitX=0.775;exitY=1.008;exitDx=0;exitDy=0;exitPerimeter=0;" edge="1" parent="1" source="0Or5zX7NZ8yI2jhLymI_-3" target="0Or5zX7NZ8yI2jhLymI_-179">
          <mxGeometry relative="1" as="geometry" />
        </mxCell>
        <mxCell id="0Or5zX7NZ8yI2jhLymI_-3" value="admin" style="whiteSpace=wrap;html=1;align=center;" vertex="1" parent="1">
          <mxGeometry x="2.5" y="220" width="100" height="40" as="geometry" />
        </mxCell>
        <mxCell id="0Or5zX7NZ8yI2jhLymI_-4" value="std. user" style="whiteSpace=wrap;html=1;align=center;" vertex="1" parent="1">
          <mxGeometry x="-155" y="220" width="100" height="40" as="geometry" />
        </mxCell>
        <mxCell id="0Or5zX7NZ8yI2jhLymI_-5" value="viewer" style="whiteSpace=wrap;html=1;align=center;" vertex="1" parent="1">
          <mxGeometry x="-310" y="220" width="100" height="40" as="geometry" />
        </mxCell>
        <mxCell id="0Or5zX7NZ8yI2jhLymI_-9" value="disjoint" style="text;html=1;align=center;verticalAlign=middle;resizable=0;points=[];autosize=1;strokeColor=none;fillColor=none;" vertex="1" parent="1">
          <mxGeometry x="-80" y="370" width="60" height="30" as="geometry" />
        </mxCell>
        <mxCell id="0Or5zX7NZ8yI2jhLymI_-11" value="views" style="rhombus;whiteSpace=wrap;html=1;" vertex="1" parent="1">
          <mxGeometry x="-320" y="85" width="120" height="60" as="geometry" />
        </mxCell>
        <mxCell id="0Or5zX7NZ8yI2jhLymI_-12" value="creates / updates / deletes / views" style="rhombus;whiteSpace=wrap;html=1;" vertex="1" parent="1">
          <mxGeometry x="-175" y="80" width="140" height="70" as="geometry" />
        </mxCell>
        <mxCell id="0Or5zX7NZ8yI2jhLymI_-14" value="" style="endArrow=none;html=1;rounded=0;entryX=0.5;entryY=1;entryDx=0;entryDy=0;exitX=0.5;exitY=0;exitDx=0;exitDy=0;" edge="1" parent="1" source="0Or5zX7NZ8yI2jhLymI_-1" target="0Or5zX7NZ8yI2jhLymI_-5">
          <mxGeometry width="50" height="50" relative="1" as="geometry">
            <mxPoint x="-125" y="270" as="sourcePoint" />
            <mxPoint x="-240" y="260" as="targetPoint" />
          </mxGeometry>
        </mxCell>
        <mxCell id="0Or5zX7NZ8yI2jhLymI_-15" value="" style="endArrow=none;html=1;rounded=0;entryX=0.5;entryY=1;entryDx=0;entryDy=0;exitX=1;exitY=0.5;exitDx=0;exitDy=0;" edge="1" parent="1" source="0Or5zX7NZ8yI2jhLymI_-1" target="0Or5zX7NZ8yI2jhLymI_-4">
          <mxGeometry width="50" height="50" relative="1" as="geometry">
            <mxPoint x="-105" y="240" as="sourcePoint" />
            <mxPoint x="50" y="250" as="targetPoint" />
          </mxGeometry>
        </mxCell>
        <mxCell id="0Or5zX7NZ8yI2jhLymI_-16" value="" style="endArrow=none;html=1;rounded=0;entryX=0.5;entryY=1;entryDx=0;entryDy=0;exitX=0.5;exitY=1;exitDx=0;exitDy=0;" edge="1" parent="1" source="0Or5zX7NZ8yI2jhLymI_-1" target="0Or5zX7NZ8yI2jhLymI_-3">
          <mxGeometry width="50" height="50" relative="1" as="geometry">
            <mxPoint x="-85" y="270" as="sourcePoint" />
            <mxPoint x="70" y="210" as="targetPoint" />
          </mxGeometry>
        </mxCell>
        <mxCell id="0Or5zX7NZ8yI2jhLymI_-17" value="" style="shape=link;html=1;rounded=0;exitX=0;exitY=0.5;exitDx=0;exitDy=0;entryX=0.5;entryY=0;entryDx=0;entryDy=0;" edge="1" parent="1" source="0Or5zX7NZ8yI2jhLymI_-1" target="qmZj_wIQ6ApBK8pKtUDV-69">
          <mxGeometry width="100" relative="1" as="geometry">
            <mxPoint y="520" as="sourcePoint" />
            <mxPoint x="92" y="520" as="targetPoint" />
          </mxGeometry>
        </mxCell>
        <mxCell id="0Or5zX7NZ8yI2jhLymI_-21" value="" style="endArrow=none;dashed=1;html=1;dashPattern=1 3;strokeWidth=2;rounded=0;entryX=0;entryY=0;entryDx=0;entryDy=0;exitX=1;exitY=0.5;exitDx=0;exitDy=0;" edge="1" parent="1" source="qmZj_wIQ6ApBK8pKtUDV-27" target="qmZj_wIQ6ApBK8pKtUDV-6">
          <mxGeometry width="50" height="50" relative="1" as="geometry">
            <mxPoint x="-220" y="120" as="sourcePoint" />
            <mxPoint x="-170" y="70" as="targetPoint" />
          </mxGeometry>
        </mxCell>
        <mxCell id="0Or5zX7NZ8yI2jhLymI_-23" value="" style="endArrow=classic;html=1;rounded=0;entryX=0.5;entryY=1;entryDx=0;entryDy=0;exitX=0.5;exitY=0;exitDx=0;exitDy=0;endFill=1;" edge="1" parent="1" source="0Or5zX7NZ8yI2jhLymI_-5" target="0Or5zX7NZ8yI2jhLymI_-11">
          <mxGeometry width="50" height="50" relative="1" as="geometry">
            <mxPoint x="-610" y="200" as="sourcePoint" />
            <mxPoint x="-560" y="150" as="targetPoint" />
          </mxGeometry>
        </mxCell>
        <mxCell id="0Or5zX7NZ8yI2jhLymI_-24" value="" style="endArrow=none;html=1;rounded=0;entryX=0;entryY=1;entryDx=0;entryDy=0;exitX=0.5;exitY=0;exitDx=0;exitDy=0;" edge="1" parent="1" source="0Or5zX7NZ8yI2jhLymI_-11" target="qmZj_wIQ6ApBK8pKtUDV-6">
          <mxGeometry width="50" height="50" relative="1" as="geometry">
            <mxPoint x="-210" y="60" as="sourcePoint" />
            <mxPoint x="-37.5" y="-90" as="targetPoint" />
          </mxGeometry>
        </mxCell>
        <mxCell id="0Or5zX7NZ8yI2jhLymI_-65" style="edgeStyle=orthogonalEdgeStyle;rounded=0;orthogonalLoop=1;jettySize=auto;html=1;exitX=0.5;exitY=0;exitDx=0;exitDy=0;entryX=0;entryY=0.75;entryDx=0;entryDy=0;endArrow=none;endFill=0;" edge="1" parent="1" source="0Or5zX7NZ8yI2jhLymI_-34" target="qmZj_wIQ6ApBK8pKtUDV-52">
          <mxGeometry relative="1" as="geometry" />
        </mxCell>
        <mxCell id="0Or5zX7NZ8yI2jhLymI_-34" value="creates / updates / deletes" style="rhombus;whiteSpace=wrap;html=1;" vertex="1" parent="1">
          <mxGeometry x="305" y="40" width="140" height="70" as="geometry" />
        </mxCell>
        <mxCell id="0Or5zX7NZ8yI2jhLymI_-35" value="" style="endArrow=none;html=1;rounded=0;entryX=0.5;entryY=1;entryDx=0;entryDy=0;exitX=0.5;exitY=0;exitDx=0;exitDy=0;" edge="1" parent="1" source="qmZj_wIQ6ApBK8pKtUDV-56" target="qmZj_wIQ6ApBK8pKtUDV-52">
          <mxGeometry width="50" height="50" relative="1" as="geometry">
            <mxPoint x="330" y="-10" as="sourcePoint" />
            <mxPoint x="380" y="-60" as="targetPoint" />
          </mxGeometry>
        </mxCell>
        <mxCell id="0Or5zX7NZ8yI2jhLymI_-36" value="" style="endArrow=none;html=1;rounded=0;entryX=0.75;entryY=1;entryDx=0;entryDy=0;exitX=0.5;exitY=0;exitDx=0;exitDy=0;" edge="1" parent="1" source="qmZj_wIQ6ApBK8pKtUDV-58" target="qmZj_wIQ6ApBK8pKtUDV-52">
          <mxGeometry width="50" height="50" relative="1" as="geometry">
            <mxPoint x="570" y="-40" as="sourcePoint" />
            <mxPoint x="620" y="-90" as="targetPoint" />
          </mxGeometry>
        </mxCell>
        <mxCell id="0Or5zX7NZ8yI2jhLymI_-37" value="" style="endArrow=none;html=1;rounded=0;exitX=1;exitY=0.5;exitDx=0;exitDy=0;entryX=0;entryY=0.5;entryDx=0;entryDy=0;" edge="1" parent="1" source="qmZj_wIQ6ApBK8pKtUDV-52" target="qmZj_wIQ6ApBK8pKtUDV-66">
          <mxGeometry width="50" height="50" relative="1" as="geometry">
            <mxPoint x="590" y="-110" as="sourcePoint" />
            <mxPoint x="640" y="-160" as="targetPoint" />
          </mxGeometry>
        </mxCell>
        <mxCell id="0Or5zX7NZ8yI2jhLymI_-48" value="" style="endArrow=none;html=1;rounded=0;exitX=0.25;exitY=0;exitDx=0;exitDy=0;" edge="1" parent="1" source="0Or5zX7NZ8yI2jhLymI_-4">
          <mxGeometry width="50" height="50" relative="1" as="geometry">
            <mxPoint x="-20" y="210" as="sourcePoint" />
            <mxPoint x="50" y="220" as="targetPoint" />
            <Array as="points">
              <mxPoint x="-130" y="190" />
              <mxPoint x="-110" y="190" />
              <mxPoint x="50" y="190" />
            </Array>
          </mxGeometry>
        </mxCell>
        <mxCell id="0Or5zX7NZ8yI2jhLymI_-50" value="" style="endArrow=classic;html=1;rounded=0;entryX=0.5;entryY=1;entryDx=0;entryDy=0;endFill=1;" edge="1" parent="1" target="0Or5zX7NZ8yI2jhLymI_-12">
          <mxGeometry width="50" height="50" relative="1" as="geometry">
            <mxPoint x="-105" y="190" as="sourcePoint" />
            <mxPoint x="-50" y="160" as="targetPoint" />
          </mxGeometry>
        </mxCell>
        <mxCell id="0Or5zX7NZ8yI2jhLymI_-52" value="" style="endArrow=none;html=1;rounded=0;exitX=0.5;exitY=0;exitDx=0;exitDy=0;entryX=0.25;entryY=1;entryDx=0;entryDy=0;" edge="1" parent="1" source="0Or5zX7NZ8yI2jhLymI_-12" target="qmZj_wIQ6ApBK8pKtUDV-6">
          <mxGeometry width="50" height="50" relative="1" as="geometry">
            <mxPoint x="-70" y="50" as="sourcePoint" />
            <mxPoint x="-20" as="targetPoint" />
          </mxGeometry>
        </mxCell>
        <mxCell id="0Or5zX7NZ8yI2jhLymI_-59" style="edgeStyle=orthogonalEdgeStyle;rounded=0;orthogonalLoop=1;jettySize=auto;html=1;exitX=1;exitY=0.5;exitDx=0;exitDy=0;entryX=0;entryY=0.75;entryDx=0;entryDy=0;startArrow=none;startFill=0;endArrow=none;endFill=0;" edge="1" parent="1">
          <mxGeometry relative="1" as="geometry">
            <mxPoint x="-190" y="-100" as="sourcePoint" />
            <mxPoint x="22.5" y="-99.99999999999977" as="targetPoint" />
          </mxGeometry>
        </mxCell>
        <mxCell id="0Or5zX7NZ8yI2jhLymI_-60" style="edgeStyle=orthogonalEdgeStyle;rounded=0;orthogonalLoop=1;jettySize=auto;html=1;exitX=0;exitY=0.5;exitDx=0;exitDy=0;entryX=0;entryY=0.25;entryDx=0;entryDy=0;endArrow=none;endFill=0;" edge="1" parent="1">
          <mxGeometry relative="1" as="geometry">
            <mxPoint x="-280" y="-100" as="sourcePoint" />
            <mxPoint x="42.5" y="-119.99999999999977" as="targetPoint" />
            <Array as="points">
              <mxPoint x="-310" y="-100" />
              <mxPoint x="-310" y="-120" />
            </Array>
          </mxGeometry>
        </mxCell>
        <mxCell id="0Or5zX7NZ8yI2jhLymI_-54" value="associated with" style="rhombus;whiteSpace=wrap;html=1;" vertex="1" parent="1">
          <mxGeometry x="-300" y="-120" width="110" height="40" as="geometry" />
        </mxCell>
        <mxCell id="0Or5zX7NZ8yI2jhLymI_-162" style="edgeStyle=orthogonalEdgeStyle;rounded=0;orthogonalLoop=1;jettySize=auto;html=1;exitX=0.5;exitY=0;exitDx=0;exitDy=0;entryX=0.5;entryY=1;entryDx=0;entryDy=0;" edge="1" parent="1" source="0Or5zX7NZ8yI2jhLymI_-67" target="0Or5zX7NZ8yI2jhLymI_-105">
          <mxGeometry relative="1" as="geometry" />
        </mxCell>
        <mxCell id="0Or5zX7NZ8yI2jhLymI_-67" value="links_to" style="rhombus;whiteSpace=wrap;html=1;" vertex="1" parent="1">
          <mxGeometry x="-622.5" y="380" width="120" height="60" as="geometry" />
        </mxCell>
        <mxCell id="0Or5zX7NZ8yI2jhLymI_-155" style="edgeStyle=orthogonalEdgeStyle;rounded=0;orthogonalLoop=1;jettySize=auto;html=1;exitX=0.5;exitY=1;exitDx=0;exitDy=0;entryX=0.5;entryY=0;entryDx=0;entryDy=0;endArrow=none;endFill=0;" edge="1" parent="1" source="0Or5zX7NZ8yI2jhLymI_-90" target="0Or5zX7NZ8yI2jhLymI_-153">
          <mxGeometry relative="1" as="geometry" />
        </mxCell>
        <mxCell id="0Or5zX7NZ8yI2jhLymI_-158" style="edgeStyle=orthogonalEdgeStyle;rounded=0;orthogonalLoop=1;jettySize=auto;html=1;exitX=0.5;exitY=0;exitDx=0;exitDy=0;entryX=0.5;entryY=1;entryDx=0;entryDy=0;" edge="1" parent="1" source="0Or5zX7NZ8yI2jhLymI_-90" target="0Or5zX7NZ8yI2jhLymI_-67">
          <mxGeometry relative="1" as="geometry" />
        </mxCell>
        <mxCell id="0Or5zX7NZ8yI2jhLymI_-90" value="generic session" style="whiteSpace=wrap;html=1;align=center;" vertex="1" parent="1">
          <mxGeometry x="-612.5" y="540" width="100" height="40" as="geometry" />
        </mxCell>
        <mxCell id="0Or5zX7NZ8yI2jhLymI_-92" value="id" style="ellipse;whiteSpace=wrap;html=1;align=center;fontStyle=4;" vertex="1" parent="1">
          <mxGeometry x="-730" y="470" width="100" height="40" as="geometry" />
        </mxCell>
        <mxCell id="0Or5zX7NZ8yI2jhLymI_-96" value="" style="endArrow=none;html=1;rounded=0;entryX=0.5;entryY=1;entryDx=0;entryDy=0;exitX=0.25;exitY=0;exitDx=0;exitDy=0;" edge="1" parent="1" source="0Or5zX7NZ8yI2jhLymI_-90" target="0Or5zX7NZ8yI2jhLymI_-92">
          <mxGeometry width="50" height="50" relative="1" as="geometry">
            <mxPoint x="-802.5" y="600" as="sourcePoint" />
            <mxPoint x="-752.5" y="550" as="targetPoint" />
          </mxGeometry>
        </mxCell>
        <mxCell id="0Or5zX7NZ8yI2jhLymI_-97" value="" style="endArrow=none;html=1;rounded=0;entryX=0.5;entryY=1;entryDx=0;entryDy=0;exitX=0.75;exitY=0;exitDx=0;exitDy=0;" edge="1" parent="1" source="0Or5zX7NZ8yI2jhLymI_-90" target="0Or5zX7NZ8yI2jhLymI_-99">
          <mxGeometry width="50" height="50" relative="1" as="geometry">
            <mxPoint x="-432.5" y="550" as="sourcePoint" />
            <mxPoint x="-445" y="480" as="targetPoint" />
          </mxGeometry>
        </mxCell>
        <mxCell id="0Or5zX7NZ8yI2jhLymI_-99" value="session_id" style="ellipse;whiteSpace=wrap;html=1;align=center;" vertex="1" parent="1">
          <mxGeometry x="-487.5" y="470" width="100" height="40" as="geometry" />
        </mxCell>
        <mxCell id="0Or5zX7NZ8yI2jhLymI_-103" value="has_a" style="rhombus;whiteSpace=wrap;html=1;" vertex="1" parent="1">
          <mxGeometry x="32.5" y="-380" width="120" height="60" as="geometry" />
        </mxCell>
        <mxCell id="0Or5zX7NZ8yI2jhLymI_-174" style="edgeStyle=orthogonalEdgeStyle;rounded=0;orthogonalLoop=1;jettySize=auto;html=1;exitX=0.5;exitY=0;exitDx=0;exitDy=0;entryX=0.5;entryY=1;entryDx=0;entryDy=0;" edge="1" parent="1" target="0Or5zX7NZ8yI2jhLymI_-121">
          <mxGeometry relative="1" as="geometry">
            <mxPoint x="-562.5" y="220" as="sourcePoint" />
          </mxGeometry>
        </mxCell>
        <mxCell id="0Or5zX7NZ8yI2jhLymI_-105" value="spring session" style="whiteSpace=wrap;html=1;align=center;" vertex="1" parent="1">
          <mxGeometry x="-612.5" y="210" width="100" height="40" as="geometry" />
        </mxCell>
        <mxCell id="0Or5zX7NZ8yI2jhLymI_-106" value="primary_id" style="ellipse;whiteSpace=wrap;html=1;align=center;fontStyle=4;" vertex="1" parent="1">
          <mxGeometry x="-730" y="140" width="100" height="40" as="geometry" />
        </mxCell>
        <mxCell id="0Or5zX7NZ8yI2jhLymI_-107" value="session_id" style="ellipse;whiteSpace=wrap;html=1;align=center;" vertex="1" parent="1">
          <mxGeometry x="-490" y="80" width="100" height="40" as="geometry" />
        </mxCell>
        <mxCell id="0Or5zX7NZ8yI2jhLymI_-108" value="creation_time" style="ellipse;whiteSpace=wrap;html=1;align=center;" vertex="1" parent="1">
          <mxGeometry x="-450" y="150" width="100" height="40" as="geometry" />
        </mxCell>
        <mxCell id="0Or5zX7NZ8yI2jhLymI_-109" value="last_access_time" style="ellipse;whiteSpace=wrap;html=1;align=center;" vertex="1" parent="1">
          <mxGeometry x="-450" y="210" width="100" height="40" as="geometry" />
        </mxCell>
        <mxCell id="0Or5zX7NZ8yI2jhLymI_-112" value="&lt;font style=&quot;font-size: 9px;&quot;&gt;max_inactive_interval&lt;/font&gt;" style="ellipse;whiteSpace=wrap;html=1;align=center;" vertex="1" parent="1">
          <mxGeometry x="-730" y="290" width="100" height="40" as="geometry" />
        </mxCell>
        <mxCell id="0Or5zX7NZ8yI2jhLymI_-114" value="expiry_time" style="ellipse;whiteSpace=wrap;html=1;align=center;" vertex="1" parent="1">
          <mxGeometry x="-770" y="210" width="100" height="40" as="geometry" />
        </mxCell>
        <mxCell id="0Or5zX7NZ8yI2jhLymI_-115" value="principal_name" style="ellipse;whiteSpace=wrap;html=1;align=center;" vertex="1" parent="1">
          <mxGeometry x="-490" y="290" width="100" height="40" as="geometry" />
        </mxCell>
        <mxCell id="0Or5zX7NZ8yI2jhLymI_-164" style="edgeStyle=orthogonalEdgeStyle;rounded=0;orthogonalLoop=1;jettySize=auto;html=1;exitX=0;exitY=0.5;exitDx=0;exitDy=0;entryX=1;entryY=0.5;entryDx=0;entryDy=0;endArrow=none;endFill=0;" edge="1" parent="1" source="0Or5zX7NZ8yI2jhLymI_-116" target="0Or5zX7NZ8yI2jhLymI_-160">
          <mxGeometry relative="1" as="geometry" />
        </mxCell>
        <mxCell id="0Or5zX7NZ8yI2jhLymI_-165" style="edgeStyle=orthogonalEdgeStyle;rounded=0;orthogonalLoop=1;jettySize=auto;html=1;exitX=1;exitY=0.5;exitDx=0;exitDy=0;entryX=0;entryY=0.5;entryDx=0;entryDy=0;endArrow=none;endFill=0;" edge="1" parent="1" source="0Or5zX7NZ8yI2jhLymI_-116" target="0Or5zX7NZ8yI2jhLymI_-119">
          <mxGeometry relative="1" as="geometry" />
        </mxCell>
        <mxCell id="0Or5zX7NZ8yI2jhLymI_-166" style="edgeStyle=orthogonalEdgeStyle;rounded=0;orthogonalLoop=1;jettySize=auto;html=1;exitX=0.5;exitY=0;exitDx=0;exitDy=0;entryX=0.5;entryY=1;entryDx=0;entryDy=0;endArrow=none;endFill=0;" edge="1" parent="1" source="0Or5zX7NZ8yI2jhLymI_-116" target="0Or5zX7NZ8yI2jhLymI_-117">
          <mxGeometry relative="1" as="geometry" />
        </mxCell>
        <mxCell id="0Or5zX7NZ8yI2jhLymI_-116" value="spring session attributes entity" style="whiteSpace=wrap;html=1;align=center;" vertex="1" parent="1">
          <mxGeometry x="-612.5" y="-105" width="100" height="40" as="geometry" />
        </mxCell>
        <mxCell id="0Or5zX7NZ8yI2jhLymI_-117" value="session_primary_id" style="ellipse;whiteSpace=wrap;html=1;align=center;fontStyle=4;" vertex="1" parent="1">
          <mxGeometry x="-612.5" y="-190" width="100" height="40" as="geometry" />
        </mxCell>
        <mxCell id="0Or5zX7NZ8yI2jhLymI_-119" value="attribute_bytes" style="ellipse;whiteSpace=wrap;html=1;align=center;" vertex="1" parent="1">
          <mxGeometry x="-477.5" y="-105" width="100" height="40" as="geometry" />
        </mxCell>
        <mxCell id="0Or5zX7NZ8yI2jhLymI_-152" value="" style="edgeStyle=orthogonalEdgeStyle;rounded=0;orthogonalLoop=1;jettySize=auto;html=1;exitX=0;exitY=0.5;exitDx=0;exitDy=0;" edge="1" parent="1" source="0Or5zX7NZ8yI2jhLymI_-120" target="0Or5zX7NZ8yI2jhLymI_-90">
          <mxGeometry relative="1" as="geometry">
            <mxPoint x="-407.5" y="560" as="sourcePoint" />
          </mxGeometry>
        </mxCell>
        <mxCell id="0Or5zX7NZ8yI2jhLymI_-120" value="has_a" style="rhombus;whiteSpace=wrap;html=1;" vertex="1" parent="1">
          <mxGeometry x="-370" y="530" width="120" height="60" as="geometry" />
        </mxCell>
        <mxCell id="0Or5zX7NZ8yI2jhLymI_-175" style="edgeStyle=orthogonalEdgeStyle;rounded=0;orthogonalLoop=1;jettySize=auto;html=1;exitX=0.5;exitY=0;exitDx=0;exitDy=0;entryX=0.5;entryY=1;entryDx=0;entryDy=0;" edge="1" parent="1" source="0Or5zX7NZ8yI2jhLymI_-121" target="0Or5zX7NZ8yI2jhLymI_-116">
          <mxGeometry relative="1" as="geometry" />
        </mxCell>
        <mxCell id="0Or5zX7NZ8yI2jhLymI_-121" value="links_to" style="rhombus;whiteSpace=wrap;html=1;" vertex="1" parent="1">
          <mxGeometry x="-622.5" y="5" width="120" height="60" as="geometry" />
        </mxCell>
        <mxCell id="0Or5zX7NZ8yI2jhLymI_-137" style="edgeStyle=orthogonalEdgeStyle;rounded=0;orthogonalLoop=1;jettySize=auto;html=1;exitX=1;exitY=0.5;exitDx=0;exitDy=0;entryX=0;entryY=0.75;entryDx=0;entryDy=0;startArrow=none;startFill=0;endArrow=none;endFill=0;" edge="1" parent="1">
          <mxGeometry relative="1" as="geometry">
            <mxPoint x="-170" y="-100" as="sourcePoint" />
            <mxPoint x="42.5" y="-99.99999999999977" as="targetPoint" />
          </mxGeometry>
        </mxCell>
        <mxCell id="0Or5zX7NZ8yI2jhLymI_-138" value="has_a" style="rhombus;whiteSpace=wrap;html=1;" vertex="1" parent="1">
          <mxGeometry x="432.5" y="-380" width="120" height="60" as="geometry" />
        </mxCell>
        <mxCell id="0Or5zX7NZ8yI2jhLymI_-143" value="" style="endArrow=none;html=1;rounded=0;exitX=0.5;exitY=0;exitDx=0;exitDy=0;entryX=0.25;entryY=1;entryDx=0;entryDy=0;" edge="1" parent="1" source="0Or5zX7NZ8yI2jhLymI_-103" target="qmZj_wIQ6ApBK8pKtUDV-88">
          <mxGeometry width="50" height="50" relative="1" as="geometry">
            <mxPoint x="290" y="-410" as="sourcePoint" />
            <mxPoint x="340" y="-460" as="targetPoint" />
          </mxGeometry>
        </mxCell>
        <mxCell id="0Or5zX7NZ8yI2jhLymI_-144" value="" style="endArrow=none;html=1;rounded=0;exitX=0.5;exitY=0;exitDx=0;exitDy=0;entryX=0.75;entryY=1;entryDx=0;entryDy=0;" edge="1" parent="1" source="0Or5zX7NZ8yI2jhLymI_-138" target="qmZj_wIQ6ApBK8pKtUDV-88">
          <mxGeometry width="50" height="50" relative="1" as="geometry">
            <mxPoint x="450" y="-440" as="sourcePoint" />
            <mxPoint x="500" y="-490" as="targetPoint" />
          </mxGeometry>
        </mxCell>
        <mxCell id="0Or5zX7NZ8yI2jhLymI_-149" value="asset_or_type" style="ellipse;whiteSpace=wrap;html=1;align=center;" vertex="1" parent="1">
          <mxGeometry x="235" y="-400" width="100" height="40" as="geometry" />
        </mxCell>
        <mxCell id="0Or5zX7NZ8yI2jhLymI_-153" value="username" style="ellipse;whiteSpace=wrap;html=1;align=center;" vertex="1" parent="1">
          <mxGeometry x="-612.5" y="650" width="100" height="40" as="geometry" />
        </mxCell>
        <mxCell id="0Or5zX7NZ8yI2jhLymI_-154" value="role" style="ellipse;whiteSpace=wrap;html=1;align=center;" vertex="1" parent="1">
          <mxGeometry x="-487.5" y="610" width="100" height="40" as="geometry" />
        </mxCell>
        <mxCell id="0Or5zX7NZ8yI2jhLymI_-157" value="" style="endArrow=none;html=1;rounded=0;entryX=0.75;entryY=1;entryDx=0;entryDy=0;exitX=0.5;exitY=0;exitDx=0;exitDy=0;" edge="1" parent="1" source="0Or5zX7NZ8yI2jhLymI_-154" target="0Or5zX7NZ8yI2jhLymI_-90">
          <mxGeometry width="50" height="50" relative="1" as="geometry">
            <mxPoint x="-457.5" y="640" as="sourcePoint" />
            <mxPoint x="-407.5" y="590" as="targetPoint" />
          </mxGeometry>
        </mxCell>
        <mxCell id="0Or5zX7NZ8yI2jhLymI_-160" value="attribute_name" style="ellipse;whiteSpace=wrap;html=1;align=center;" vertex="1" parent="1">
          <mxGeometry x="-747.5" y="-105" width="100" height="40" as="geometry" />
        </mxCell>
        <mxCell id="0Or5zX7NZ8yI2jhLymI_-167" value="" style="endArrow=none;html=1;rounded=0;entryX=0.5;entryY=1;entryDx=0;entryDy=0;exitX=0;exitY=0;exitDx=0;exitDy=0;" edge="1" parent="1" source="0Or5zX7NZ8yI2jhLymI_-105" target="0Or5zX7NZ8yI2jhLymI_-106">
          <mxGeometry width="50" height="50" relative="1" as="geometry">
            <mxPoint x="-590" y="150" as="sourcePoint" />
            <mxPoint x="-540" y="100" as="targetPoint" />
          </mxGeometry>
        </mxCell>
        <mxCell id="0Or5zX7NZ8yI2jhLymI_-168" value="" style="endArrow=none;html=1;rounded=0;exitX=1;exitY=0.5;exitDx=0;exitDy=0;entryX=0;entryY=0.5;entryDx=0;entryDy=0;" edge="1" parent="1" source="0Or5zX7NZ8yI2jhLymI_-114" target="0Or5zX7NZ8yI2jhLymI_-105">
          <mxGeometry width="50" height="50" relative="1" as="geometry">
            <mxPoint x="-660" y="270" as="sourcePoint" />
            <mxPoint x="-610" y="220" as="targetPoint" />
          </mxGeometry>
        </mxCell>
        <mxCell id="0Or5zX7NZ8yI2jhLymI_-169" value="" style="endArrow=none;html=1;rounded=0;exitX=0.5;exitY=0;exitDx=0;exitDy=0;entryX=0;entryY=1;entryDx=0;entryDy=0;" edge="1" parent="1" source="0Or5zX7NZ8yI2jhLymI_-112" target="0Or5zX7NZ8yI2jhLymI_-105">
          <mxGeometry width="50" height="50" relative="1" as="geometry">
            <mxPoint x="-630" y="290" as="sourcePoint" />
            <mxPoint x="-580" y="240" as="targetPoint" />
          </mxGeometry>
        </mxCell>
        <mxCell id="0Or5zX7NZ8yI2jhLymI_-170" value="" style="endArrow=none;html=1;rounded=0;entryX=0;entryY=1;entryDx=0;entryDy=0;exitX=0.75;exitY=0;exitDx=0;exitDy=0;" edge="1" parent="1" source="0Or5zX7NZ8yI2jhLymI_-105" target="0Or5zX7NZ8yI2jhLymI_-107">
          <mxGeometry width="50" height="50" relative="1" as="geometry">
            <mxPoint x="-570" y="190" as="sourcePoint" />
            <mxPoint x="-520" y="140" as="targetPoint" />
          </mxGeometry>
        </mxCell>
        <mxCell id="0Or5zX7NZ8yI2jhLymI_-171" value="" style="endArrow=none;html=1;rounded=0;exitX=1;exitY=0;exitDx=0;exitDy=0;entryX=0;entryY=0.5;entryDx=0;entryDy=0;" edge="1" parent="1" source="0Or5zX7NZ8yI2jhLymI_-105" target="0Or5zX7NZ8yI2jhLymI_-108">
          <mxGeometry width="50" height="50" relative="1" as="geometry">
            <mxPoint x="-500" y="210" as="sourcePoint" />
            <mxPoint x="-450" y="160" as="targetPoint" />
          </mxGeometry>
        </mxCell>
        <mxCell id="0Or5zX7NZ8yI2jhLymI_-172" value="" style="endArrow=none;html=1;rounded=0;exitX=1;exitY=0.5;exitDx=0;exitDy=0;" edge="1" parent="1" source="0Or5zX7NZ8yI2jhLymI_-105" target="0Or5zX7NZ8yI2jhLymI_-109">
          <mxGeometry width="50" height="50" relative="1" as="geometry">
            <mxPoint x="-500" y="230" as="sourcePoint" />
            <mxPoint x="-450" y="210" as="targetPoint" />
          </mxGeometry>
        </mxCell>
        <mxCell id="0Or5zX7NZ8yI2jhLymI_-176" value="" style="endArrow=none;dashed=1;html=1;dashPattern=1 3;strokeWidth=2;rounded=0;entryX=0.75;entryY=1;entryDx=0;entryDy=0;exitX=0.5;exitY=0;exitDx=0;exitDy=0;" edge="1" parent="1" source="0Or5zX7NZ8yI2jhLymI_-115" target="0Or5zX7NZ8yI2jhLymI_-105">
          <mxGeometry width="50" height="50" relative="1" as="geometry">
            <mxPoint x="-530" y="320" as="sourcePoint" />
            <mxPoint x="-480" y="270" as="targetPoint" />
          </mxGeometry>
        </mxCell>
        <mxCell id="0Or5zX7NZ8yI2jhLymI_-177" value="" style="shape=link;html=1;rounded=0;exitX=0.5;exitY=0;exitDx=0;exitDy=0;entryX=0.5;entryY=1;entryDx=0;entryDy=0;" edge="1" parent="1" source="qmZj_wIQ6ApBK8pKtUDV-6" target="0Or5zX7NZ8yI2jhLymI_-103">
          <mxGeometry width="100" relative="1" as="geometry">
            <mxPoint x="68" y="-240" as="sourcePoint" />
            <mxPoint x="160" y="-240" as="targetPoint" />
          </mxGeometry>
        </mxCell>
        <mxCell id="0Or5zX7NZ8yI2jhLymI_-178" value="" style="shape=link;html=1;rounded=0;exitX=0.5;exitY=0;exitDx=0;exitDy=0;entryX=0.5;entryY=1;entryDx=0;entryDy=0;" edge="1" parent="1" source="qmZj_wIQ6ApBK8pKtUDV-52" target="0Or5zX7NZ8yI2jhLymI_-138">
          <mxGeometry width="100" relative="1" as="geometry">
            <mxPoint x="491.87" y="-130" as="sourcePoint" />
            <mxPoint x="490" y="-300" as="targetPoint" />
          </mxGeometry>
        </mxCell>
        <mxCell id="0Or5zX7NZ8yI2jhLymI_-179" value="edits role of" style="rhombus;whiteSpace=wrap;html=1;" vertex="1" parent="1">
          <mxGeometry x="20" y="355" width="120" height="60" as="geometry" />
        </mxCell>
        <mxCell id="0Or5zX7NZ8yI2jhLymI_-184" value="" style="shape=link;html=1;rounded=0;exitX=0;exitY=0.5;exitDx=0;exitDy=0;entryX=1;entryY=0.5;entryDx=0;entryDy=0;" edge="1" parent="1" source="qmZj_wIQ6ApBK8pKtUDV-69" target="0Or5zX7NZ8yI2jhLymI_-120">
          <mxGeometry width="100" relative="1" as="geometry">
            <mxPoint x="-240" y="540" as="sourcePoint" />
            <mxPoint x="-240" y="670" as="targetPoint" />
          </mxGeometry>
        </mxCell>
      </root>
    </mxGraphModel>
  </diagram>
</mxfile>
